<?xml version="1.0" encoding="UTF-8"?>
<svg xmlns="http://www.w3.org/2000/svg" xmlns:xlink="http://www.w3.org/1999/xlink" viewBox="0 0 1687 246">
  <defs>
    <style>
      .cls-1 {
        fill: #ef4623;
      }

      .cls-2 {
        fill: none;
      }

      .cls-3 {
        fill: #e6e7d6;
      }

      .cls-4 {
        clip-path: url(#clippath);
      }
    </style>
    <clipPath id="clippath">
      <rect class="cls-2" width="1687" height="246"/>
    </clipPath>
  </defs>
  <g id="bg">
    <rect class="cls-3" x="-90" y="-90" width="1872" height="423"/>
  </g>
  <g id="logo">
    <g class="cls-4">
      <g>
        <path class="cls-1" d="M401.14,243h-14.88v-63.24c0-12.84-8.93-21.95-21.76-21.95s-21.39,9.11-21.39,21.95v63.24h-14.88v-63.24c0-12.84-8.93-21.95-21.58-21.95s-21.76,9.11-21.76,21.95v63.24h-14.88v-63.24c0-20.65,15.63-35.16,36.46-35.16,13.39,0,23.62,5.95,29.39,15.81,5.95-9.86,16.18-15.81,29.2-15.81,21.39,0,36.09,14.51,36.09,35.16v63.24Z"/>
        <path class="cls-1" d="M427.36,120.05c0-5.21,4.09-9.3,9.49-9.3s9.49,4.09,9.49,9.3c0,5.58-4.28,9.67-9.49,9.67s-9.49-4.09-9.49-9.67ZM429.41,243v-95.42h14.88v95.42h-14.88Z"/>
        <path class="cls-1" d="M547.16,173.43c-6.32-9.3-16.55-15.62-29.76-15.62-20.65,0-35.53,15.62-35.53,37.39s14.88,37.39,35.53,37.39c13.76,0,24.18-7.07,30.51-16.74l9.11,8.93c-8,12.46-22.32,21.21-39.62,21.21-29.95,0-50.78-21.76-50.78-50.78s21.76-50.6,50.78-50.6c16.37,0,30.13,7.25,39.06,19.53l-9.3,9.3Z"/>
        <path class="cls-1" d="M618.95,147.58v13.21h-27.9v82.22h-14.88v-95.42h42.78Z"/>
        <path class="cls-1" d="M626.4,195.2c0-29.02,21.58-50.6,50.41-50.6s50.41,21.58,50.41,50.6-21.39,50.78-50.41,50.78-50.41-21.76-50.41-50.78ZM712.15,195.2c0-21.58-14.88-37.39-35.34-37.39s-35.16,15.81-35.16,37.39,14.7,37.39,35.16,37.39,35.34-16,35.34-37.39Z"/>
        <path class="cls-1" d="M823.57,152.04h-.74l-25.11,90.96h-26.41l-33.11-139.51h28.27l19.72,94.68h.74l24.74-94.68h23.07l25.11,94.68h.74l19.72-94.68h28.09l-33.11,139.51h-26.23l-25.48-90.96Z"/>
        <path class="cls-1" d="M958.8,143.67c14.7,0,26.04,6.32,31.06,15.25h.74c-.19-1.49-.37-3.35-.37-8.56v-3.72h23.81v96.35h-23.81v-4.46c0-4.28.19-6.88.37-8.93h-.74c-5.58,10.04-17.49,16.37-32.18,16.37-27.53,0-46.88-21.02-46.88-51.15s20.46-51.15,47.99-51.15ZM989.3,194.45c0-16.55-10.97-28.09-26.23-28.09s-26.04,11.53-26.04,28.09,10.98,28.46,26.04,28.46,26.23-11.72,26.23-28.46Z"/>
        <path class="cls-1" d="M1039.34,103.49h26.04v80.36c1.49.19,2.98.19,4.46.19,14.88,0,26.04-9.86,26.04-26.79,0-2.98,0-5.58-.37-10.6h24.93c.37,3.53.56,6.32.56,10.98,0,15.62-5.58,31.81-20.46,40.92l26.04,44.46h-29.2l-20.65-37.2c-1.86.19-3.91.19-5.95.19-1.67,0-3.53,0-5.39-.19v37.2h-26.04V103.49Z"/>
        <path class="cls-1" d="M1186.29,245.98c-30.51,0-51.71-21.58-51.71-51.15s21.39-51.15,51.34-51.15c28.27,0,47.25,21.39,47.25,51.15,0,2.6-.19,5.77-.74,8.18h-70.87c2.79,12.65,11.53,19.9,24.93,19.9,10.79,0,17.86-3.35,24.18-11.35l15.07,15.81c-9.86,12.83-23.07,18.6-39.43,18.6ZM1161.55,186.45h46.13c-1.86-12.09-10.23-20.09-22.32-20.09s-21.21,7.63-23.81,20.09Z"/>
        <path class="cls-1" d="M1319.47,152.04h-.74l-25.11,90.96h-26.41l-33.11-139.51h28.27l19.72,94.68h.74l24.74-94.68h23.07l25.11,94.68h.74l19.72-94.68h28.09l-33.11,139.51h-26.23l-25.48-90.96Z"/>
        <path class="cls-1" d="M1406.34,194.82c0-29.76,21.58-51.15,51.53-51.15s51.71,21.39,51.71,51.15-21.76,51.15-51.71,51.15-51.53-21.58-51.53-51.15ZM1483.35,194.45c0-16.55-10.23-28.09-25.48-28.09s-25.48,11.53-25.48,28.09,10.42,28.46,25.48,28.46,25.48-11.72,25.48-28.46Z"/>
        <path class="cls-1" d="M1575.05,146.65v22.88h-20.46v73.47h-26.04v-96.35h46.5Z"/>
        <path class="cls-1" d="M1631.97,143.67c12.84,0,24.55,5.02,29.39,13.21h.74c-.19-1.3-.37-3.16-.37-8.37v-45.01h25.67v139.51h-23.81v-4.28c0-4.09.19-6.88.37-8.74h-.74c-6.14,10.23-18.23,16-32.37,16-27.34,0-46.69-21.02-46.69-51.15s20.09-51.15,47.8-51.15ZM1662.66,194.45c0-16.55-10.97-28.09-26.23-28.09s-26.04,11.53-26.04,28.09,10.98,28.27,26.04,28.27,26.23-11.53,26.23-28.27Z"/>
      </g>
      <path class="cls-1" d="M243,27h0C243,12.09,230.91,0,216,0H27C12.09,0,0,12.09,0,27v106.91c0,24.45,9.71,47.9,27,65.18h0s43.91,43.91,43.91,43.91h38.18l-55.09-55.09c-17.29-17.29-27-40.74-27-65.18V27h189v117h-45c-14.91,0-27,12.09-27,27h0v35.8l-36-35.8h-36l72,72h27v-72h45c14.91,0,27-12.09,27-27h0s0,0,0,0V27h0Z"/>
    </g>
  </g>
</svg>